<svg width="64" height="64" viewBox="0 0 64 64" fill="none" xmlns="http://www.w3.org/2000/svg">
<path d="M25.9267 19.7705H14.8862V24.2484H25.9267V19.7705Z" fill="#55C2B8"/>
<path d="M41.9267 22.0132H30.8862V24.2484H41.9267V22.0132Z" fill="#55C2B8"/>
<path d="M42.2428 58.5363C43.1882 58.5367 44.1208 58.3177 44.9672 57.8966C45.6203 57.57 46.3405 57.4 47.0707 57.4C47.8009 57.4 48.521 57.57 49.1742 57.8966C50.0206 58.3177 50.9531 58.5367 51.8985 58.5363H53.2908C54.6477 58.5344 55.9491 57.9976 56.9128 57.0424C57.8764 56.0872 58.4246 54.7905 58.4385 53.4338V48.0603C58.4385 46.6936 57.8966 45.3827 56.9317 44.415C55.9667 43.4472 54.6574 42.9015 53.2908 42.8975H51.9286C50.9827 42.8998 50.0501 43.1213 49.2043 43.5448C48.5501 43.8679 47.8304 44.036 47.1008 44.036C46.3712 44.036 45.6514 43.8679 44.9973 43.5448C44.5059 43.3036 43.9845 43.129 43.447 43.0255H43.2739L45.05 29.223H47.1045C47.2909 29.221 47.4689 29.1456 47.5999 29.0132C47.731 28.8807 47.8045 28.7019 47.8045 28.5156V24.9483C47.8045 24.7627 47.7307 24.5847 47.5995 24.4534C47.4682 24.3222 47.2902 24.2484 47.1045 24.2484H43.3416V21.3961C43.3417 21.2103 43.2688 21.0319 43.1384 20.8994L38.9013 16.6548V13.7273L40.4968 12.4479L42.8223 17.0913L44.0716 16.4667L41.6182 11.5523L42.8976 10.5363H46.2014C46.294 10.5373 46.3858 10.5199 46.4716 10.4852C46.5574 10.4505 46.6354 10.3991 46.7012 10.334C46.767 10.2689 46.8192 10.1914 46.8549 10.106C46.8905 10.0206 46.9089 9.92893 46.9089 9.83639V6.28418C46.9089 6.19163 46.8905 6.09999 46.8549 6.01458C46.8192 5.92917 46.767 5.85168 46.7012 5.78659C46.6354 5.7215 46.5574 5.6701 46.4716 5.63537C46.3858 5.60064 46.294 5.58327 46.2014 5.58427H37.2908C35.2208 5.59023 33.2373 6.41517 31.7736 7.87889C30.3099 9.34261 29.4849 11.3261 29.479 13.3961C29.479 13.5817 29.5527 13.7598 29.684 13.891C29.8152 14.0223 29.9932 14.096 30.1789 14.096H32.1506V16.6548L29.6897 19.1233C29.6226 19.1858 29.5692 19.2616 29.533 19.3458C29.4967 19.43 29.4783 19.5208 29.479 19.6125V24.2484H27.3266V16.9483C27.3273 16.8627 27.3093 16.7779 27.2739 16.7L27.2362 16.6247L27.1685 16.4968L23.7743 12.2597V6.28418C23.7743 6.09855 23.7006 5.92052 23.5693 5.78927C23.4381 5.65801 23.2601 5.58427 23.0744 5.58427H17.7386C17.553 5.58427 17.3749 5.65801 17.2437 5.78927C17.1124 5.92052 17.0387 6.09855 17.0387 6.28418V12.2597L13.637 16.5118C13.6162 16.5399 13.5985 16.5702 13.5843 16.6021C13.5622 16.6348 13.5444 16.6702 13.5316 16.7075C13.5026 16.7848 13.4848 16.8659 13.479 16.9483V24.2484H9.71602C9.53039 24.2484 9.35237 24.3222 9.22111 24.4534C9.08985 24.5847 9.01611 24.7627 9.01611 24.9483V28.5005C9.0161 28.6869 9.0896 28.8657 9.22065 28.9981C9.35169 29.1306 9.5297 29.206 9.71602 29.208H11.7631V29.366L15.2174 56.1506C15.241 56.3195 15.3248 56.4742 15.4534 56.5862C15.582 56.6982 15.7468 56.76 15.9173 56.7602H36.9672L37.0274 56.8204C37.5075 57.36 38.0964 57.7919 38.7553 58.0876C39.4142 58.3833 40.1283 58.5363 40.8505 58.5363H42.2428ZM43.3266 6.98408H45.479V9.13648H43.3266V6.98408ZM44.3425 44.8091C45.1908 45.2285 46.1244 45.4466 47.0707 45.4466C48.017 45.4466 48.9505 45.2285 49.7988 44.8091C50.4615 44.4832 51.1901 44.3133 51.9286 44.3124H53.3209C53.8441 44.2599 54.3726 44.3176 54.8721 44.4819C55.3716 44.6461 55.8312 44.9132 56.2212 45.266C56.6111 45.6188 56.9228 46.0494 57.1361 46.53C57.3495 47.0107 57.4597 47.5307 57.4597 48.0565C57.4597 48.5824 57.3495 49.1024 57.1361 49.583C56.9228 50.0637 56.6111 50.4942 56.2212 50.847C55.8312 51.1998 55.3716 51.4669 54.8721 51.6312C54.3726 51.7954 53.8441 51.8532 53.3209 51.8006H51.9286C51.1998 51.7989 50.4812 51.6289 49.8289 51.3039C48.9796 50.8879 48.0465 50.6716 47.1008 50.6716C46.1551 50.6716 45.2219 50.8879 44.3727 51.3039C43.7203 51.6289 43.0017 51.7989 42.2729 51.8006H40.8505C40.3273 51.8532 39.7989 51.7954 39.2994 51.6312C38.7998 51.4669 38.3403 51.1998 37.9503 50.847C37.5603 50.4942 37.2486 50.0637 37.0353 49.583C36.822 49.1024 36.7118 48.5824 36.7118 48.0565C36.7118 47.5307 36.822 47.0107 37.0353 46.53C37.2486 46.0494 37.5603 45.6188 37.9503 45.266C38.3403 44.9132 38.7998 44.6461 39.2994 44.4819C39.7989 44.3176 40.3273 44.2599 40.8505 44.3124H42.2428C42.9712 44.3178 43.6889 44.4876 44.3425 44.8091ZM46.367 25.6482V27.8006H33.573V25.6482H46.367ZM30.9164 12.6887V12.478C31.1445 10.9559 31.9093 9.56551 33.0728 8.558C34.2362 7.55048 35.7216 6.99223 37.2607 6.98408H41.8966V9.50525L37.9079 12.6887H30.9164ZM37.479 14.096V16.2484H33.5505V14.096H37.479ZM30.8562 19.906L33.114 17.6482H37.8703L41.9042 21.6821V24.2484H30.8562V19.906ZM32.1205 25.6482V32.0603C32.1173 32.1913 32.1517 32.3206 32.2198 32.4326C32.2878 32.5447 32.3866 32.6349 32.5044 32.6925L37.8703 35.3717C38.0215 35.4485 38.1559 35.5545 38.2657 35.6837C38.3755 35.8129 38.4586 35.9627 38.51 36.1242C38.6028 36.4666 38.5568 36.8316 38.3821 37.1402C38.2383 37.4278 37.9867 37.6469 37.6822 37.7498C37.372 37.8527 37.0337 37.8283 36.7414 37.6821L33.129 35.8759C33.0456 35.8407 32.9561 35.8226 32.8656 35.8226C32.7751 35.8226 32.6856 35.8407 32.6022 35.8759C32.5144 35.9051 32.4333 35.9514 32.3636 36.0121C32.2938 36.0728 32.2368 36.1467 32.1958 36.2296C32.1516 36.3265 32.1286 36.4317 32.1281 36.5382V45.3961C32.1261 45.9178 31.9175 46.4174 31.5479 46.7855C31.1783 47.1537 30.6779 47.3604 30.1563 47.3604H29.9681V39.3604H28.5984V47.3604H26.4385V39.3604H25.0387V47.3604H22.8863V39.3604H21.479V47.3604H21.2908C20.7699 47.3604 20.2702 47.1534 19.9019 46.7851C19.5335 46.4167 19.3266 45.9171 19.3266 45.3961V25.6482H32.1205ZM18.4385 6.98408H22.367V11.8006H18.4385V6.98408ZM18.0622 13.208H22.7207L25.1516 16.2183H15.6389L18.0622 13.208ZM14.8712 17.6482H25.9267V24.2484H14.8863L14.8712 17.6482ZM10.4385 27.8006V25.6482H17.9644V27.8006H10.4385ZM35.7029 48.0603V53.4338C35.705 54.0162 35.8068 54.594 36.0039 55.1421L36.0942 55.398H16.557V55.2324L13.2005 29.208H17.9267V45.3961C17.9287 46.2877 18.2838 47.1422 18.9143 47.7727C19.5447 48.4031 20.3992 48.7582 21.2908 48.7602H30.1789C31.0718 48.7602 31.9282 48.406 32.5603 47.7753C33.1924 47.1447 33.5485 46.289 33.5505 45.3961V37.6294L36.1243 38.9314C36.7532 39.2418 37.4795 39.2901 38.144 39.0658C38.8085 38.8415 39.3569 38.3628 39.669 37.7348C39.8322 37.419 39.9312 37.0739 39.9601 36.7195C39.989 36.3652 39.9473 36.0086 39.8374 35.6705C39.7275 35.3324 39.5516 35.0195 39.3198 34.7498C39.0881 34.4802 38.8052 34.2593 38.4874 34.0998L33.5505 31.6087V29.208H43.605L41.8364 42.8975H40.8505C39.4839 42.9015 38.1746 43.4472 37.2097 44.415C36.2447 45.3827 35.7028 46.6936 35.7029 48.0603ZM37.1027 53.4338V51.5974L37.4188 51.8834C38.3586 52.7356 39.5819 53.2078 40.8505 53.208H42.2428C43.1883 53.202 44.12 52.9806 44.9672 52.5607C45.6213 52.2376 46.3411 52.0695 47.0707 52.0695C47.8003 52.0695 48.52 52.2376 49.1742 52.5607C50.0304 52.9851 50.973 53.2066 51.9286 53.208H53.3209C54.5896 53.2078 55.8129 52.7356 56.7527 51.8834L57.0688 51.5974V53.4338C57.0688 54.4317 56.6723 55.3889 55.9667 56.0945C55.261 56.8002 54.3039 57.1967 53.3059 57.1967H51.9286C51.1998 57.195 50.4812 57.025 49.8289 56.7C48.9806 56.2806 48.0471 56.0625 47.1008 56.0625C46.1545 56.0625 45.2209 56.2806 44.3727 56.7C43.7203 57.025 43.0017 57.195 42.2729 57.1967H40.8505C39.8552 57.1927 38.9019 56.7945 38.1995 56.0892C37.497 55.384 37.1027 54.4291 37.1027 53.4338Z" fill="#0054A6"/>
</svg>
