<svg width="64" height="64" viewBox="0 0 64 64" fill="none" xmlns="http://www.w3.org/2000/svg">
<path d="M46.999 4.25H56.9989C58.5149 4.25 59.7489 5.48401 59.7489 6.99998V16.9999C59.7489 18.5159 58.5149 19.7499 56.9989 19.7499H46.999C45.483 19.7499 44.249 18.5159 44.249 16.9999V6.99998C44.249 5.48401 45.483 4.25 46.999 4.25ZM56.9989 18.2499C57.6888 18.2499 58.2489 17.6898 58.2489 16.9999V6.99998C58.2489 6.31013 57.6888 5.74999 56.9989 5.74999H46.999C46.3092 5.74999 45.749 6.31013 45.749 6.99998V16.9999C45.749 17.6898 46.3092 18.2499 46.999 18.2499H56.9989Z" fill="#0054A6" stroke="#F0F0F0" stroke-width="0.5"/>
<path d="M50.999 8.25H52.999C53.414 8.25 53.749 8.58495 53.749 8.99999C53.749 9.41504 53.414 9.74999 52.999 9.74999H50.999C50.584 9.74999 50.249 9.41504 50.249 8.99999C50.249 8.58495 50.584 8.25 50.999 8.25Z" fill="#55C2B8" stroke="#F0F0F0" stroke-width="0.5"/>
<path d="M52.8345 23.7919L52.7715 23.7499H52.6959H42.999C41.483 23.7499 40.249 22.5159 40.249 20.9999V3C40.249 1.48403 41.483 0.250023 42.999 0.250023H60.9989C62.5149 0.250023 63.7489 1.48401 63.7489 2.99998V20.9999C63.7489 22.5158 62.5149 23.7498 60.9989 23.7498H59.9989H59.7489V23.9998V26.9998C59.7489 27.2768 59.5966 27.531 59.3528 27.6616C59.2423 27.7206 59.1209 27.7498 58.999 27.7498C58.8537 27.7498 58.7082 27.7071 58.5825 27.6238C58.5824 27.6237 58.5823 27.6237 58.5822 27.6236L52.8345 23.7919ZM57.8602 25.34L58.2489 25.5991V25.132V22.9999C58.2489 22.5848 58.5839 22.2499 58.9989 22.2499H60.9989C61.6887 22.2499 62.2489 21.6897 62.2489 20.9999L62.2488 2.99992C62.2488 2.31007 61.6887 1.74993 60.9988 1.74993H42.9989C42.3091 1.74993 41.749 2.31007 41.749 2.99992V20.9998C41.749 21.6897 42.3091 22.2498 42.9989 22.2498H52.9989C53.1463 22.2498 53.2922 22.294 53.415 22.376L53.4151 22.3761L57.8602 25.34Z" fill="#0054A6" stroke="#F0F0F0" stroke-width="0.5"/>
<path d="M44.249 44.7497V44.9997V47.9996C44.249 48.2766 44.4013 48.5307 44.645 48.6613L44.249 44.7497ZM44.249 44.7497H43.999M44.249 44.7497H43.999M43.999 44.7497H42.999C41.483 44.7497 40.249 43.5157 40.249 41.9997V33.9997C40.249 32.4838 41.483 31.2498 42.999 31.2498H60.9462L60.9462 31.2498H60.9989C62.5149 31.2498 63.7489 32.4838 63.7489 33.9998V41.9997C63.7489 43.5157 62.5149 44.7497 60.9989 44.7497H51.3021H51.2264M43.999 44.7497L51.2264 44.7497M51.2264 44.7497L51.1634 44.7917M51.2264 44.7497L51.1634 44.7917M51.1634 44.7917L45.4157 48.6234C45.4156 48.6235 45.4154 48.6236 45.4153 48.6237C45.2896 48.7069 45.1441 48.7496 44.999 48.7496C44.877 48.7496 44.7557 48.7205 44.6452 48.6614L51.1634 44.7917ZM45.7489 46.1319V46.5991L46.1376 46.3399L50.5825 43.3757C50.7055 43.2939 50.8515 43.2497 50.999 43.2497H60.9989C61.6887 43.2497 62.2489 42.6895 62.2489 41.9997L62.2488 33.9998C62.2488 33.31 61.6887 32.7498 60.9988 32.7498H42.9989C42.3091 32.7498 41.749 33.31 41.749 33.9998V41.9998C41.749 42.6896 42.3091 43.2498 42.9989 43.2498H44.9989C45.414 43.2498 45.7489 43.5847 45.7489 43.9998V46.1319Z" fill="#0054A6" stroke="#F0F0F0" stroke-width="0.5"/>
<path d="M46.999 35.2498H58.9989C59.414 35.2498 59.7489 35.5847 59.7489 35.9997C59.7489 36.4148 59.414 36.7497 58.9989 36.7497H46.999C46.584 36.7497 46.249 36.4148 46.249 35.9997C46.249 35.5847 46.584 35.2498 46.999 35.2498Z" fill="#55C2B8" stroke="#F0F0F0" stroke-width="0.5"/>
<path d="M44.999 39.2498H58.9989C59.414 39.2498 59.7489 39.5847 59.7489 39.9997C59.7489 40.4148 59.414 40.7497 58.9989 40.7497H44.999C44.584 40.7497 44.249 40.4148 44.249 39.9997C44.249 39.5847 44.584 39.2498 44.999 39.2498Z" fill="#55C2B8" stroke="#F0F0F0" stroke-width="0.5"/>
<mask id="path-7-inside-1_553_1899" fill="white">
<path d="M62.9989 55.9996H41.999V49.2367C41.999 47.3836 40.741 45.7859 38.9401 45.3487L25.9996 42.2134V37.6563C27.9406 36.9701 29.5157 35.6554 30.5715 33.9992L31.9996 33.9996C33.6536 33.9996 34.9995 32.6537 34.9995 30.9997V29.8577C36.7206 29.4108 37.9995 27.8586 37.9995 25.9997C37.9995 24.1407 36.7206 22.5885 34.9995 22.1416V21.9997C34.9995 14.2796 28.7197 7.99976 20.9996 7.99976C13.2796 7.99976 6.99973 14.2796 6.99973 21.9997V22.1318C5.25871 22.5537 3.99975 24.0407 3.99975 25.8769C3.99975 28.1118 5.83185 29.9996 7.99972 29.9996H10.0648C10.3858 33.4764 12.6679 36.4804 15.9997 37.6567V42.2138L3.05804 45.3496C1.25713 45.7858 0 47.3844 0 49.2367V63C0 63.5531 0.448214 64 0.999993 64H62.9996C63.5527 64 63.9996 63.5531 63.9996 63V57C63.9996 56.4469 63.5527 56 62.9996 56L62.9989 55.9996ZM39.9991 49.2367V55.9996H24.4997L22.34 53.1198L24.0859 51.4987L24.2939 51.7068C24.4805 51.8956 24.7359 51.9996 24.9997 51.9996C25.0229 51.9996 25.0466 51.9987 25.0707 51.9965C25.3595 51.9755 25.6256 51.8313 25.7997 51.5996L28.7997 47.5996C29.0667 47.2447 29.0667 46.7555 28.7997 46.4006L27.4698 44.6273L38.4706 47.2934C39.3706 47.5117 39.9996 48.3108 39.9996 49.2367L39.9991 49.2367ZM17.1078 44.5215L19.5859 46.9997L17.1078 49.4778L15.2497 46.9997L17.1078 44.5215ZM24.8916 44.5215L26.7497 46.9997L24.8916 49.4778L22.4135 46.9997L24.8916 44.5215ZM20.9996 48.4135L22.6697 50.0835L20.9996 51.6358L19.3287 50.0849L20.9996 48.4135ZM20.9996 54.6666L21.9996 55.9996H19.9996L20.9996 54.6666ZM31.9996 31.9993H31.5406C31.7518 31.3591 31.8714 30.6873 31.9348 29.9993H32.9996V30.9993C32.9996 31.5511 32.5504 31.9993 31.9996 31.9993ZM35.9995 25.9994C35.9995 27.1025 35.1027 27.9993 33.9995 27.9993H31.9996V23.9994H33.9995C35.1027 23.9994 35.9995 24.8962 35.9995 25.9994ZM20.9996 9.99946C27.6165 9.99946 32.9996 15.3825 32.9996 21.9994H31.9513C31.4737 16.3727 26.7488 11.9374 20.9996 11.9374C15.2505 11.9374 10.5257 16.3727 10.0479 21.9994H8.99973C8.99973 15.3825 14.3828 9.99946 20.9996 9.99946ZM5.99973 25.8759C5.99973 24.8063 6.85954 23.9991 7.99972 23.9991H9.99971V27.9991H7.99972C6.93455 27.9991 5.99973 27.0072 5.99973 25.8759ZM11.9997 29.1724V22.9385C11.9997 17.9755 16.0376 13.9385 20.9996 13.9385C25.9617 13.9385 29.9996 17.9755 29.9996 22.9385V29.1724C29.9996 30.1724 29.7714 31.1255 29.3844 31.9991H24.8153C24.4015 30.8379 23.3015 29.9991 21.9992 29.9991C20.3451 29.9991 18.9992 31.345 18.9992 32.9991C18.9992 34.6531 20.3451 35.9991 21.9992 35.9991C23.301 35.9991 24.401 35.1602 24.8153 33.9991H28.0604C27.2894 34.8071 26.3256 35.4419 25.2136 35.812L24.6837 35.9888C24.2747 36.1249 23.9997 36.5071 23.9997 36.937V42.5838L20.9998 45.5838L17.9998 42.5838V36.937C17.9998 36.5062 17.7248 36.1249 17.3159 35.9888L16.7859 35.812C13.923 34.8571 11.9997 32.1894 11.9997 29.1724ZM22.9996 32.9991C22.9996 33.5509 22.5505 33.9991 21.9996 33.9991C21.4487 33.9991 20.9996 33.5509 20.9996 32.9991C20.9996 32.4473 21.4487 31.9991 21.9996 31.9991C22.5505 31.9991 22.9996 32.4473 22.9996 32.9991ZM3.52889 47.2916L14.5297 44.6255L13.1998 46.3988C12.9328 46.7537 12.9328 47.243 13.1998 47.5978L16.1998 51.5978C16.3739 51.83 16.64 51.9746 16.9288 51.9947C16.9529 51.9978 16.9766 51.9987 16.9998 51.9987C17.2636 51.9987 17.519 51.8947 17.7069 51.7059L17.9149 51.4978L19.6609 53.1188L17.4997 55.9987H2.00042V49.2358C2.00042 48.3099 2.62943 47.5108 3.52944 47.2916L3.52889 47.2916ZM61.9994 61.9989H1.99976V57.9989H61.9994V61.9989Z"/>
</mask>
<path d="M62.9989 55.9996H41.999V49.2367C41.999 47.3836 40.741 45.7859 38.9401 45.3487L25.9996 42.2134V37.6563C27.9406 36.9701 29.5157 35.6554 30.5715 33.9992L31.9996 33.9996C33.6536 33.9996 34.9995 32.6537 34.9995 30.9997V29.8577C36.7206 29.4108 37.9995 27.8586 37.9995 25.9997C37.9995 24.1407 36.7206 22.5885 34.9995 22.1416V21.9997C34.9995 14.2796 28.7197 7.99976 20.9996 7.99976C13.2796 7.99976 6.99973 14.2796 6.99973 21.9997V22.1318C5.25871 22.5537 3.99975 24.0407 3.99975 25.8769C3.99975 28.1118 5.83185 29.9996 7.99972 29.9996H10.0648C10.3858 33.4764 12.6679 36.4804 15.9997 37.6567V42.2138L3.05804 45.3496C1.25713 45.7858 0 47.3844 0 49.2367V63C0 63.5531 0.448214 64 0.999993 64H62.9996C63.5527 64 63.9996 63.5531 63.9996 63V57C63.9996 56.4469 63.5527 56 62.9996 56L62.9989 55.9996ZM39.9991 49.2367V55.9996H24.4997L22.34 53.1198L24.0859 51.4987L24.2939 51.7068C24.4805 51.8956 24.7359 51.9996 24.9997 51.9996C25.0229 51.9996 25.0466 51.9987 25.0707 51.9965C25.3595 51.9755 25.6256 51.8313 25.7997 51.5996L28.7997 47.5996C29.0667 47.2447 29.0667 46.7555 28.7997 46.4006L27.4698 44.6273L38.4706 47.2934C39.3706 47.5117 39.9996 48.3108 39.9996 49.2367L39.9991 49.2367ZM17.1078 44.5215L19.5859 46.9997L17.1078 49.4778L15.2497 46.9997L17.1078 44.5215ZM24.8916 44.5215L26.7497 46.9997L24.8916 49.4778L22.4135 46.9997L24.8916 44.5215ZM20.9996 48.4135L22.6697 50.0835L20.9996 51.6358L19.3287 50.0849L20.9996 48.4135ZM20.9996 54.6666L21.9996 55.9996H19.9996L20.9996 54.6666ZM31.9996 31.9993H31.5406C31.7518 31.3591 31.8714 30.6873 31.9348 29.9993H32.9996V30.9993C32.9996 31.5511 32.5504 31.9993 31.9996 31.9993ZM35.9995 25.9994C35.9995 27.1025 35.1027 27.9993 33.9995 27.9993H31.9996V23.9994H33.9995C35.1027 23.9994 35.9995 24.8962 35.9995 25.9994ZM20.9996 9.99946C27.6165 9.99946 32.9996 15.3825 32.9996 21.9994H31.9513C31.4737 16.3727 26.7488 11.9374 20.9996 11.9374C15.2505 11.9374 10.5257 16.3727 10.0479 21.9994H8.99973C8.99973 15.3825 14.3828 9.99946 20.9996 9.99946ZM5.99973 25.8759C5.99973 24.8063 6.85954 23.9991 7.99972 23.9991H9.99971V27.9991H7.99972C6.93455 27.9991 5.99973 27.0072 5.99973 25.8759ZM11.9997 29.1724V22.9385C11.9997 17.9755 16.0376 13.9385 20.9996 13.9385C25.9617 13.9385 29.9996 17.9755 29.9996 22.9385V29.1724C29.9996 30.1724 29.7714 31.1255 29.3844 31.9991H24.8153C24.4015 30.8379 23.3015 29.9991 21.9992 29.9991C20.3451 29.9991 18.9992 31.345 18.9992 32.9991C18.9992 34.6531 20.3451 35.9991 21.9992 35.9991C23.301 35.9991 24.401 35.1602 24.8153 33.9991H28.0604C27.2894 34.8071 26.3256 35.4419 25.2136 35.812L24.6837 35.9888C24.2747 36.1249 23.9997 36.5071 23.9997 36.937V42.5838L20.9998 45.5838L17.9998 42.5838V36.937C17.9998 36.5062 17.7248 36.1249 17.3159 35.9888L16.7859 35.812C13.923 34.8571 11.9997 32.1894 11.9997 29.1724ZM22.9996 32.9991C22.9996 33.5509 22.5505 33.9991 21.9996 33.9991C21.4487 33.9991 20.9996 33.5509 20.9996 32.9991C20.9996 32.4473 21.4487 31.9991 21.9996 31.9991C22.5505 31.9991 22.9996 32.4473 22.9996 32.9991ZM3.52889 47.2916L14.5297 44.6255L13.1998 46.3988C12.9328 46.7537 12.9328 47.243 13.1998 47.5978L16.1998 51.5978C16.3739 51.83 16.64 51.9746 16.9288 51.9947C16.9529 51.9978 16.9766 51.9987 16.9998 51.9987C17.2636 51.9987 17.519 51.8947 17.7069 51.7059L17.9149 51.4978L19.6609 53.1188L17.4997 55.9987H2.00042V49.2358C2.00042 48.3099 2.62943 47.5108 3.52944 47.2916L3.52889 47.2916ZM61.9994 61.9989H1.99976V57.9989H61.9994V61.9989Z" fill="#0054A6" stroke="#F0F0F0" mask="url(#path-7-inside-1_553_1899)"/>
</svg>
