<svg width="64" height="64" viewBox="0 0 64 64" fill="none" xmlns="http://www.w3.org/2000/svg">
<path d="M28.8995 28.5004C29.4171 27.9878 29.7407 27.3114 29.8152 26.5867C29.8897 25.862 29.7103 25.1339 29.3077 24.5268C28.9051 23.9196 28.3043 23.471 27.6078 23.2575C26.9113 23.044 26.1623 23.0789 25.4886 23.3561C24.8149 23.6334 24.2583 24.1359 23.9139 24.7778C23.5694 25.4197 23.4585 26.1613 23.5999 26.8759C23.7413 27.5906 24.1264 28.234 24.6894 28.6963C25.2524 29.1586 25.9584 29.4112 26.6869 29.411C27.0974 29.4121 27.5042 29.3322 27.8838 29.176C28.2635 29.0197 28.6086 28.7901 28.8995 28.5004ZM28.5984 26.2878C28.5989 26.5368 28.5499 26.7835 28.4543 27.0134C28.3587 27.2434 28.2184 27.4521 28.0415 27.6274C27.6804 27.9715 27.2007 28.1635 26.7019 28.1635C26.2031 28.1635 25.7234 27.9715 25.3623 27.6274C25.0075 27.2718 24.8083 26.7901 24.8083 26.2878C24.8083 25.7855 25.0075 25.3037 25.3623 24.9482C25.6275 24.6835 25.9652 24.5034 26.3327 24.4304C26.7002 24.3575 27.0811 24.395 27.4273 24.5383C27.7735 24.6816 28.0695 24.9243 28.2779 25.2356C28.4863 25.547 28.5979 25.9131 28.5984 26.2878Z" fill="#55C2B8"/>
<path d="M7.52596 15.4129C8.78757 18.8927 10.4682 22.2059 12.5307 25.2794C16.2409 30.713 20.4554 33.5202 24.8355 33.5202C25.4414 33.5148 26.0457 33.4569 26.6417 33.3471L28.1468 35.9736L26.3406 36.8767C26.1959 36.9536 26.0872 37.0843 26.038 37.2405C25.9887 37.3968 26.0028 37.5661 26.0772 37.7121L27.3115 40.0827L34.4912 56.6397C34.7366 57.215 35.0977 57.7338 35.5522 58.1636C36.0066 58.5934 36.5446 58.9252 37.1327 59.1383C37.5768 59.2984 38.0454 59.3798 38.5175 59.3791C39.146 59.3822 39.7659 59.2324 40.3237 58.9426L40.9408 58.7018C41.4301 58.4468 41.8603 58.092 42.2039 57.6603C42.5474 57.2286 42.7965 56.7296 42.9352 56.1956C43.0967 55.5913 43.1327 54.9603 43.0408 54.3416C42.9489 53.7229 42.7311 53.1295 42.4008 52.5983L35.4996 41.3396L41.5203 35.3189L52.7489 42.2276C53.4777 42.6767 54.3162 42.9163 55.1722 42.92C55.5689 42.9203 55.9638 42.8671 56.3463 42.762C56.8786 42.6194 57.3756 42.3678 57.8057 42.0233C58.2358 41.6787 58.5896 41.2485 58.8449 40.7601L59.1534 40.1731C59.4058 39.6827 59.5541 39.1454 59.589 38.595C59.624 38.0446 59.5449 37.493 59.3566 36.9746C59.1396 36.3875 58.8055 35.8506 58.3747 35.3965C57.9439 34.9424 57.4254 34.5806 56.8505 34.333L40.2936 27.1608L37.9229 25.889C37.8492 25.8575 37.7698 25.8413 37.6896 25.8413C37.6095 25.8413 37.5301 25.8575 37.4563 25.889C37.379 25.9123 37.3072 25.951 37.2451 26.0028C37.1831 26.0545 37.132 26.1181 37.0951 26.19L36.1845 27.9435L33.573 26.4383C33.573 26.3932 33.573 26.3405 33.573 26.2954C33.5797 24.9846 33.2084 23.6997 32.5037 22.5946C31.7989 21.4894 30.7906 20.6108 29.5993 20.0639C27.5222 18.8372 19.6351 13.7573 18.3105 6.59263C18.2881 6.4678 18.2277 6.35292 18.1377 6.26362C18.0476 6.17432 17.9322 6.11494 17.8072 6.09355C17.6822 6.07217 17.5536 6.08982 17.439 6.14411C17.3244 6.1984 17.2293 6.28669 17.1666 6.39696C15.2557 10.1492 14.3679 14.3389 14.5927 18.5437C13.652 18.2954 11.6426 17.475 8.46669 14.7808C8.36449 14.6899 8.23471 14.6361 8.09822 14.6279C7.96172 14.6197 7.82644 14.6576 7.71411 14.7356C7.61922 14.8172 7.5507 14.9251 7.5172 15.0457C7.48371 15.1663 7.48676 15.2941 7.52596 15.4129ZM26.3406 19.4092C24.5683 19.485 22.894 20.2432 21.6681 21.5253C20.4421 22.8074 19.7595 24.5139 19.763 26.2878C19.7631 26.8281 19.8288 27.3664 19.9587 27.8908C13.4714 20.7638 16.0904 11.9962 17.5354 8.51925C19.1534 13.4863 23.383 17.2568 26.3406 19.4092ZM32.3613 26.2878C32.3592 27.369 32.0479 28.4269 31.4641 29.3369C30.8803 30.2469 30.0484 30.9708 29.0665 31.4234C28.0847 31.876 26.9938 32.0382 25.9228 31.891C24.8517 31.7438 23.8451 31.2933 23.0217 30.5926C22.9164 30.5023 22.811 30.412 22.7132 30.3142C21.7786 29.3796 21.2006 28.1475 21.0794 26.8314C20.9582 25.5154 21.3014 24.1984 22.0495 23.1089C22.7976 22.0194 23.9034 21.226 25.1752 20.8664C26.447 20.5068 27.8045 20.6037 29.0123 21.1401L29.5692 21.4487H29.6595C30.0472 21.6781 30.4038 21.9564 30.7207 22.2765C31.2456 22.8036 31.6609 23.4295 31.9425 24.118C32.2241 24.8065 32.3665 25.544 32.3613 26.2878ZM39.2174 27.9435L37.4338 31.3678L36.1243 30.6905L37.9004 27.2662L39.2174 27.9435ZM38.4648 31.9774L40.2861 28.4779L56.3538 35.4318C56.7746 35.6115 57.1544 35.875 57.4701 36.2062C57.7858 36.5374 58.0308 36.9294 58.1901 37.3584C58.322 37.7165 58.3781 38.098 58.3548 38.4789C58.3315 38.8598 58.2293 39.2317 58.0546 39.571L57.7461 40.1655C57.568 40.5033 57.3214 40.8003 57.022 41.0374C56.7227 41.2745 56.3772 41.4467 56.0076 41.5428C55.5738 41.6528 55.1223 41.6743 54.68 41.6057C54.2378 41.5372 53.8139 41.3801 53.4338 41.1439L38.4648 31.9774ZM28.6812 40.1129L32.1807 38.2916L41.3924 53.2079C41.6343 53.594 41.7945 54.0256 41.8631 54.476C41.9317 54.9265 41.9073 55.3862 41.7912 55.8269C41.6935 56.1967 41.5209 56.5426 41.284 56.8429C41.047 57.1433 40.7509 57.3917 40.414 57.5729L39.8195 57.8814C39.4796 58.0548 39.1075 58.1557 38.7266 58.1778C38.3457 58.1998 37.9644 58.1424 37.6069 58.0094C37.1782 57.8517 36.7862 57.6081 36.4549 57.2937C36.1237 56.9792 35.86 56.6005 35.6802 56.1806L28.6812 40.1129ZM27.477 37.6971L30.8938 35.9134L31.6087 37.2154L28.1845 38.999L27.477 37.6971ZM29.2155 35.3716L27.891 33.0385C29.2375 32.8051 30.4836 32.1745 31.4692 31.2278C32.4548 30.281 33.135 29.0614 33.4225 27.7253L35.6125 28.967L34.747 30.6378C34.672 30.7816 34.6558 30.9489 34.7019 31.1044C34.7265 31.1822 34.7665 31.2543 34.8195 31.3163C34.8725 31.3784 34.9374 31.4291 35.0104 31.4656L37.3886 32.7074L40.4667 34.619L34.8373 40.2483L32.9408 37.1778L31.7066 34.7996C31.6693 34.7253 31.6174 34.6592 31.554 34.6055C31.4906 34.5517 31.4169 34.5113 31.3375 34.4867C31.2581 34.4621 31.1745 34.4538 31.0918 34.4623C31.0091 34.4708 30.9289 34.4959 30.8562 34.5362L29.2155 35.3716ZM9.52784 17.1439C12.2522 19.1684 13.9606 19.7027 14.7959 19.8382C15.398 23.7817 17.4074 27.9887 22.2165 31.5183C22.4546 31.7251 22.706 31.9162 22.969 32.0903C16.0452 30.6303 11.3491 21.396 9.52784 17.1439Z" fill="#0054A6"/>
<path d="M40.9033 29.7346C40.9033 29.7346 55.0745 36.0037 56.0077 36.5079C56.2748 36.642 56.5103 36.8314 56.6985 37.0635C56.8868 37.2956 57.0235 37.565 57.0997 37.854C57.1758 38.143 57.1897 38.4448 57.1402 38.7395C57.0908 39.0343 56.9793 39.3151 56.813 39.5634C56.5853 39.8765 56.2665 40.1117 55.9001 40.237C55.5338 40.3623 55.1377 40.3714 54.766 40.2633C54.766 40.2633 55.5712 38.4421 52.7114 36.824C49.8516 35.2059 40.9033 29.7346 40.9033 29.7346Z" fill="#55C2B8"/>
<path d="M31.9399 39.541C31.9399 39.541 39.7142 52.9446 40.1732 53.8928C40.3114 54.1575 40.3916 54.4485 40.4084 54.7465C40.4252 55.0446 40.3783 55.3428 40.2708 55.6213C40.1632 55.8997 39.9975 56.1521 39.7848 56.3614C39.572 56.5708 39.317 56.7324 39.0368 56.8355C38.6677 56.9576 38.2698 56.9624 37.8979 56.8492C37.5259 56.736 37.1982 56.5104 36.9597 56.2033C36.9597 56.2033 38.6906 55.2023 37.3285 52.2146C35.9663 49.2268 31.9399 39.541 31.9399 39.541Z" fill="#55C2B8"/>
</svg>
