<svg width="90" height="48" viewBox="0 0 90 48" fill="none" xmlns="http://www.w3.org/2000/svg">
<g clip-path="url(#clip0_528_2441)">
<path d="M15.2231 47.2985L30.8711 24.5981H25.1111L12.4761 42.9268L11.0139 41.0658H4.59668L9.7216 47.2985H15.2231Z" fill="#55C2B8"/>
<path d="M20.4887 24.5982L22.2536 27.4486L19.5582 31.3477L14.8911 24.5982H20.4887ZM15.1275 34.0135H4.93668C5.53484 35.2246 6.83453 35.8228 8.56253 35.8228C9.76944 35.8654 10.9588 35.5241 11.9595 34.848L14.1748 37.1815C13.4236 38.0638 12.4812 38.7631 11.4191 39.2263C10.357 39.6895 9.20325 39.9045 8.0456 39.8548C3.83637 39.8548 0.0997607 37.0339 0.0997607 32.1083C0.0571413 31.086 0.224492 30.0658 0.591486 29.1107C0.95848 28.1556 1.51733 27.2858 2.23354 26.555C2.94975 25.8243 3.80812 25.2481 4.75568 24.862C5.70324 24.4759 6.71987 24.2881 7.74284 24.3102C11.5385 24.3102 16.117 26.9317 15.0831 34.0135H15.1275ZM10.6967 30.4985C10.5202 29.8753 10.1347 29.3319 9.6049 28.9594C9.07508 28.5869 8.43324 28.4081 7.78714 28.4529C7.13684 28.4402 6.49873 28.6304 5.96145 28.997C5.42416 29.3635 5.01437 29.8883 4.78899 30.4985H10.6967ZM87.8659 35.3649C86.4554 35.3649 86.0567 34.5009 86.0567 33.8142V28.512H89.2247V24.5982H86.0567V20.7655H81.0721V24.5982H78.7976V28.512H81.0721V34.56C81.0721 38.304 83.2358 39.7292 86.2413 39.7292C87.3638 39.7292 88.7151 39.5225 89.2911 38.8948V35.136C88.835 35.2819 88.3596 35.3591 87.8807 35.3649H87.8659ZM71.7305 28.7188V24.5982H66.7459V39.5668H71.7305V33.7551C71.7305 31.0449 73.3404 29.088 76.3385 29.088C76.7063 29.0822 77.0734 29.1219 77.4314 29.2062V24.4505C77.0654 24.3529 76.6878 24.3057 76.309 24.3102C73.6579 24.3102 72.2179 26.208 71.7305 28.6892V28.7188ZM54.9453 34.0135C55.5508 35.2246 56.8431 35.8228 58.5711 35.8228C59.7782 35.8664 60.9678 35.525 61.9681 34.848L64.1834 37.1815C63.4322 38.0638 62.4898 38.7631 61.4277 39.2263C60.3656 39.6895 59.2119 39.9045 58.0542 39.8548C53.845 39.8548 50.1084 37.0339 50.1084 32.1083C50.0654 31.0822 50.2341 30.0582 50.6037 29.1C50.9734 28.1418 51.5363 27.2699 52.2573 26.5385C52.9783 25.8071 53.842 25.2319 54.7948 24.8485C55.7476 24.4652 56.7691 24.2819 57.7958 24.3102C61.5914 24.3102 66.1699 26.9317 65.1361 34.0135H54.9453ZM60.757 30.4985C60.582 29.8759 60.1979 29.3326 59.6693 28.9601C59.1408 28.5875 58.5 28.4084 57.8548 28.4529C57.1946 28.4277 56.5433 28.612 55.9942 28.9794C55.445 29.3468 55.0262 29.8785 54.7976 30.4985H60.757ZM49.0155 32.0862C49.0155 37.3219 45.2715 39.8548 41.9041 39.8548C39.3121 39.8548 37.9016 38.4148 37.7834 38.1563H37.7022V47.2985H32.6881V24.5982H37.6727V26.0086H37.7539C37.8721 25.7502 39.2825 24.3102 41.8745 24.3102C45.2419 24.3102 48.9859 26.8431 48.9859 32.0862H49.0155ZM44.0899 32.0862C44.071 31.4426 43.8626 30.819 43.4909 30.2933C43.1192 29.7677 42.6006 29.3634 42.0001 29.1311C41.3997 28.8989 40.744 28.849 40.1153 28.9876C39.4866 29.1263 38.9128 29.4474 38.4658 29.9107C38.0187 30.374 37.7183 30.9589 37.6022 31.5921C37.4861 32.2254 37.5594 32.8788 37.8129 33.4706C38.0665 34.0624 38.489 34.5662 39.0276 34.9189C39.5662 35.2717 40.1969 35.4576 40.8407 35.4535C41.2793 35.4602 41.7146 35.3767 42.1197 35.2083C42.5247 35.0398 42.8909 34.7901 43.1954 34.4744C43.5 34.1587 43.7366 33.7839 43.8905 33.3731C44.0443 32.9623 44.1122 32.5243 44.0899 32.0862ZM23.5311 36.5169L25.6653 39.552H31.3145L26.2044 32.6474L23.5311 36.5169ZM52.4936 13.6837C52.4936 8.44801 56.2376 5.91508 59.5755 5.91508C62.197 5.91508 63.6075 7.392 63.7182 7.61354H63.8068V6.18093H68.7841V21.1717H63.8068V19.7612H63.7182C63.6075 20.0197 62.197 21.4597 59.5755 21.4597C56.2376 21.4597 52.4936 18.9268 52.4936 13.6837ZM57.3822 13.6837C57.4011 14.3269 57.6093 14.9503 57.9807 15.4758C58.3521 16.0013 58.8702 16.4056 59.4703 16.6381C60.0703 16.8706 60.7256 16.9209 61.3541 16.7829C61.9826 16.6448 62.5564 16.3245 63.0038 15.8619C63.4511 15.3993 63.7521 14.8151 63.8691 14.1823C63.986 13.5495 63.9138 12.8963 63.6614 12.3044C63.4089 11.7125 62.9876 11.2081 62.4499 10.8545C61.9123 10.5009 61.2823 10.3137 60.6388 10.3163C60.1999 10.3097 59.7643 10.3932 59.3589 10.5616C58.9534 10.7299 58.5868 10.9796 58.2817 11.2951C57.9765 11.6107 57.7392 11.9854 57.5845 12.3962C57.4298 12.8071 57.361 13.2452 57.3822 13.6837ZM75.4081 0.731079H70.4308V21.1717H75.4081V0.731079ZM28.3238 21.4597C24.3804 21.4597 20.2967 18.7791 20.2967 13.6837C20.2967 8.58831 24.3582 5.91508 28.3016 5.91508C32.245 5.91508 36.277 8.58831 36.277 13.6837C36.277 18.7791 32.2228 21.4597 28.3016 21.4597H28.3238ZM28.3016 17.0289C28.9646 17.0704 29.6248 16.9117 30.1966 16.5734C30.7683 16.2352 31.2253 15.733 31.5083 15.1319C31.7912 14.5309 31.8871 13.8587 31.7835 13.2025C31.6799 12.5463 31.3815 11.9364 30.9271 11.4518C30.4727 10.9672 29.8832 10.6302 29.2351 10.4846C28.5869 10.339 27.9099 10.3915 27.2919 10.6352C26.6739 10.8789 26.1434 11.3026 25.7691 11.8515C25.3948 12.4003 25.194 13.0489 25.1927 13.7132C25.1643 14.1386 25.2237 14.5652 25.3672 14.9666C25.5107 15.3679 25.7352 15.7355 26.0268 16.0465C26.3184 16.3575 26.6708 16.6051 27.0621 16.7741C27.4534 16.9431 27.8753 17.0299 28.3016 17.0289ZM45.397 21.4597C46.7058 21.468 47.9937 21.131 49.1307 20.4827C50.2677 19.8345 51.2137 18.8979 51.8733 17.7674L48.277 15.4043C47.9523 15.8735 47.5232 16.261 47.0235 16.5365C46.5238 16.812 45.9671 16.9679 45.397 16.992C44.5157 16.992 43.6704 16.6419 43.0472 16.0187C42.424 15.3955 42.0739 14.5503 42.0739 13.6689C42.0739 12.7876 42.424 11.9424 43.0472 11.3192C43.6704 10.696 44.5157 10.3458 45.397 10.3458C45.9672 10.3657 46.5248 10.519 47.0249 10.7935C47.5251 11.0679 47.954 11.4559 48.277 11.9262L51.8733 9.57046C51.2237 8.43118 50.2799 7.48739 49.1405 6.83784C48.0012 6.18829 46.7083 5.85684 45.397 5.87816C41.3724 5.87816 37.3625 8.55139 37.3625 13.6172C37.3625 18.6831 41.3945 21.4597 45.4044 21.4597H45.397ZM19.2038 0.731079H14.2191V21.1717H19.2038V0.731079Z" fill="#0054A6"/>
</g>
<defs>
<clipPath id="clip0_528_2441">
<rect width="89.3538" height="48" fill="white"/>
</clipPath>
</defs>
</svg>
