<svg width="65" height="64" viewBox="0 0 65 64" fill="none" xmlns="http://www.w3.org/2000/svg">
<path d="M49.8694 14.1186H49.5006C48.7022 14.1186 47.9365 13.8015 47.372 13.2369C46.8074 12.6724 46.4903 11.9067 46.4903 11.1083C46.4903 10.3099 46.1731 9.5442 45.6086 8.97965C45.044 8.4151 44.2783 8.09794 43.4799 8.09794H43.1036C42.3052 8.09794 41.5396 8.4151 40.975 8.97965C40.4104 9.5442 40.0933 10.3099 40.0933 11.1083C40.0933 11.9067 39.7761 12.6724 39.2116 13.2369C38.647 13.8015 37.8813 14.1186 37.0829 14.1186H36.7142C35.9158 14.1186 35.1501 13.8015 34.5855 13.2369C34.021 12.6724 33.7038 11.9067 33.7038 11.1083C33.7038 10.3099 33.3867 9.5442 32.8221 8.97965C32.2576 8.4151 31.4919 8.09794 30.6935 8.09794H30.3247C29.5263 8.09794 28.7606 8.4151 28.1961 8.97965C27.6315 9.5442 27.3144 10.3099 27.3144 11.1083C27.3144 11.9067 26.9972 12.6724 26.4327 13.2369C25.8681 13.8015 25.1024 14.1186 24.304 14.1186H23.9352C23.1369 14.1186 22.3712 13.8015 21.8066 13.2369C21.2421 12.6724 20.9249 11.9067 20.9249 11.1083C20.9249 10.3099 20.6077 9.5442 20.0432 8.97965C19.4786 8.4151 18.7129 8.09794 17.9146 8.09794H17.5458C17.0563 8.11459 16.5701 8.01156 16.1295 7.7978C15.6888 7.58403 15.307 7.26597 15.0171 6.87122C15.1925 6.77486 15.3889 6.72317 15.5891 6.7207H51.7132C52.0326 6.7207 52.3389 6.84757 52.5647 7.07339C52.7905 7.29921 52.9174 7.60548 52.9174 7.92484V11.0932C52.9194 11.493 52.8418 11.8892 52.689 12.2586C52.5363 12.6281 52.3115 12.9634 52.0278 13.2451C51.744 13.5267 51.407 13.749 51.0365 13.899C50.6659 14.049 50.2691 14.1236 49.8694 14.1186Z" fill="#55C2B8"/>
<path d="M33.2897 56.5119C33.8675 56.5119 34.3358 56.0435 34.3358 55.4658C34.3358 54.888 33.8675 54.4197 33.2897 54.4197C32.712 54.4197 32.2437 54.888 32.2437 55.4658C32.2437 56.0435 32.712 56.5119 33.2897 56.5119Z" fill="#0054A6"/>
<path d="M54.1061 7.89462C54.1061 7.22197 53.8389 6.57687 53.3633 6.10124C52.8877 5.62561 52.2426 5.3584 51.5699 5.3584H16.1983C15.525 5.3584 14.8791 5.62536 14.4023 6.10078C13.9255 6.5762 13.6566 7.22128 13.6546 7.89462V11.4619H12.8267C12.1873 11.4639 11.5748 11.7193 11.1234 12.1721C10.6719 12.6249 10.4185 13.2383 10.4185 13.8777V22.3443C10.4185 22.9837 10.6719 23.597 11.1234 24.0499C11.5748 24.5027 12.1873 24.7581 12.8267 24.7601H31.5737C31.8511 24.7601 32.1172 24.8703 32.3134 25.0665C32.5096 25.2627 32.6198 25.5287 32.6198 25.8062V36.5832H29.632C29.4504 36.5832 29.2762 36.6554 29.1477 36.7838C29.0193 36.9123 28.9471 37.0865 28.9471 37.2681V56.1354C28.9938 57.2549 29.4713 58.3129 30.2798 59.0885C31.0884 59.8641 32.1654 60.2971 33.2858 60.2971C34.4062 60.2971 35.4832 59.8641 36.2918 59.0885C37.1003 58.3129 37.5778 57.2549 37.6245 56.1354V37.2681C37.6245 37.0865 37.5523 36.9123 37.4239 36.7838C37.2955 36.6554 37.1213 36.5832 36.9396 36.5832H33.9293V25.8062C33.9293 25.1675 33.6755 24.5549 33.2239 24.1033C32.7723 23.6516 32.1597 23.3979 31.521 23.3979H12.8267C12.5486 23.3959 12.2825 23.284 12.0866 23.0867C11.8906 22.8893 11.7806 22.6224 11.7806 22.3443V13.8777C11.7766 13.7374 11.8007 13.5978 11.8513 13.467C11.902 13.3361 11.9783 13.2168 12.0758 13.1158C12.1732 13.0149 12.2898 12.9344 12.4188 12.8791C12.5477 12.8239 12.6864 12.7949 12.8267 12.794H13.6395V17.2267C13.6415 17.9 13.9104 18.5451 14.3872 19.0205C14.8641 19.496 15.5099 19.7629 16.1833 19.7629H51.5549C52.2275 19.7629 52.8726 19.4957 53.3482 19.0201C53.8239 18.5444 54.0911 17.8993 54.0911 17.2267L54.1061 7.89462ZM30.3093 37.9454H36.2623V56.1354C36.1545 56.8477 35.795 57.4977 35.2488 57.9675C34.7027 58.4372 34.0062 58.6955 33.2858 58.6955C32.5654 58.6955 31.869 58.4372 31.3228 57.9675C30.7767 57.4977 30.4171 56.8477 30.3093 56.1354V37.9454ZM52.7439 17.2568C52.7439 17.5682 52.6203 17.8668 52.4001 18.087C52.1799 18.3071 51.8813 18.4308 51.5699 18.4308H16.1983C16.0435 18.4318 15.89 18.4022 15.7467 18.3436C15.6034 18.2851 15.4731 18.1988 15.3633 18.0896C15.2535 17.9805 15.1663 17.8508 15.1068 17.7078C15.0474 17.5649 15.0168 17.4116 15.0168 17.2568V7.89462C15.0168 7.7398 15.0474 7.58652 15.1068 7.44359C15.1663 7.30065 15.2535 7.17089 15.3633 7.06178C15.4731 6.95266 15.6034 6.86634 15.7467 6.80778C15.89 6.74922 16.0435 6.71959 16.1983 6.72058H51.5699C51.8813 6.72058 52.1799 6.84427 52.4001 7.06445C52.6203 7.28462 52.7439 7.58324 52.7439 7.89462V17.2568Z" fill="#0054A6"/>
</svg>
