<svg width="64" height="64" viewBox="0 0 64 64" fill="none" xmlns="http://www.w3.org/2000/svg">
<path d="M37.4861 34.8599H37.3582C36.959 34.8599 36.5762 35.0185 36.2939 35.3008C36.0116 35.5831 35.853 35.9659 35.853 36.3651V57.4375C35.853 57.8367 36.0116 58.2196 36.2939 58.5019C36.5762 58.7841 36.959 58.9427 37.3582 58.9427H44.1315C44.5307 58.9427 44.9135 58.7841 45.1958 58.5019C45.4781 58.2196 45.6367 57.8367 45.6367 57.4375V36.3651C45.6367 35.9659 45.4781 35.5831 45.1958 35.3008C44.9135 35.0185 44.5307 34.8599 44.1315 34.8599H44.0261C43.976 34.8582 43.9284 34.838 43.8923 34.8033C43.8561 34.7686 43.8341 34.7217 43.8304 34.6718V34.0321C43.8403 33.9868 43.8648 33.9461 43.9002 33.9161C43.9356 33.8862 43.9798 33.8688 44.0261 33.8665H44.1541C44.5533 33.8665 44.9361 33.7079 45.2184 33.4257C45.5007 33.1434 45.6592 32.7605 45.6592 32.3613V31.4658C45.6592 31.0666 45.5007 30.6837 45.2184 30.4014C44.9361 30.1192 44.5533 29.9606 44.1541 29.9606H42.2952V11.3867C42.4961 11.1906 42.656 10.9566 42.7658 10.6982C42.8756 10.4399 42.9331 10.1623 42.9349 9.88156V6.63791C42.9371 6.55432 42.9219 6.47118 42.8903 6.39378C42.8586 6.31638 42.8112 6.24642 42.751 6.18836C42.6909 6.1303 42.6192 6.08542 42.5407 6.05657C42.4623 6.02772 42.3786 6.01553 42.2952 6.02079H39.2171C39.1317 6.01526 39.046 6.02801 38.9659 6.05821C38.8858 6.0884 38.813 6.13533 38.7525 6.19587C38.6919 6.25641 38.645 6.32917 38.6148 6.40929C38.5846 6.48941 38.5719 6.57505 38.5774 6.66049V9.87403C38.595 10.4381 38.8232 10.9751 39.2171 11.3792V30.1939H37.3582C36.959 30.1939 36.5762 30.3525 36.2939 30.6347C36.0116 30.917 35.853 31.2999 35.853 31.6991V32.6022C35.853 33.0014 36.0116 33.3842 36.2939 33.6665C36.5762 33.9488 36.959 34.1073 37.3582 34.1073H37.4861C37.5349 34.1108 37.5807 34.1318 37.6153 34.1663C37.6498 34.2009 37.6708 34.2467 37.6743 34.2955V34.9352C37.6291 34.7997 37.5463 34.8599 37.4861 34.8599ZM39.8869 7.34534H41.6178V9.91166C41.5973 10.136 41.4937 10.3445 41.3273 10.4964C41.1609 10.6482 40.9438 10.7324 40.7185 10.7324C40.4932 10.7324 40.2761 10.6482 40.1097 10.4964C39.9433 10.3445 39.8397 10.136 39.8192 9.91166V7.34534H39.8869ZM40.4965 12.0415H41.0082V30.1788H40.4965V12.0415ZM37.4861 32.6323H37.3582C37.3081 32.6305 37.2605 32.6104 37.2243 32.5757C37.1882 32.5409 37.1662 32.4941 37.1625 32.4441V31.541C37.1677 31.4916 37.1902 31.4457 37.226 31.4112C37.2618 31.3768 37.3086 31.3561 37.3582 31.3529H44.1315C44.1816 31.3546 44.2292 31.3747 44.2653 31.4095C44.3015 31.4442 44.3235 31.491 44.3272 31.541V32.4441C44.3219 32.4935 44.2995 32.5395 44.2636 32.5739C44.2278 32.6083 44.181 32.629 44.1315 32.6323H44.0261C43.6269 32.6323 43.2441 32.7908 42.9618 33.0731C42.6795 33.3554 42.5209 33.7382 42.5209 34.1374V34.7771C42.5209 35.1763 42.6795 35.5592 42.9618 35.8415C43.2441 36.1237 43.6269 36.2823 44.0261 36.2823H44.1541C44.2048 36.2858 44.2526 36.3076 44.2885 36.3435C44.3245 36.3795 44.3462 36.4272 44.3497 36.478V57.4375C44.3462 57.4883 44.3245 57.536 44.2885 57.572C44.2526 57.608 44.2048 57.6297 44.1541 57.6332H37.3808C37.33 57.6297 37.2823 57.608 37.2463 57.572C37.2104 57.536 37.1886 57.4883 37.1851 57.4375V36.3651C37.1903 36.3157 37.2128 36.2697 37.2486 36.2353C37.2844 36.2009 37.3312 36.1802 37.3808 36.177H37.5087C37.9079 36.177 38.2908 36.0184 38.573 35.7361C38.8553 35.4538 39.0139 35.071 39.0139 34.6718V34.0321C38.9907 33.6448 38.8188 33.2815 38.5342 33.0178C38.2495 32.7542 37.8741 32.6107 37.4861 32.6172V32.6323Z" fill="#0054A6"/>
<path d="M42.1449 55.4507C42.2303 55.4562 42.3159 55.4434 42.3961 55.4132C42.4762 55.3831 42.5489 55.3361 42.6095 55.2756C42.67 55.215 42.717 55.1423 42.7471 55.0622C42.7773 54.982 42.7901 54.8964 42.7846 54.811V39.0066C42.7846 38.837 42.7172 38.6743 42.5972 38.5543C42.4772 38.4343 42.3145 38.3669 42.1449 38.3669C41.9752 38.3669 41.8125 38.4343 41.6925 38.5543C41.5726 38.6743 41.5052 38.837 41.5052 39.0066V54.811C41.4996 54.8964 41.5124 54.982 41.5426 55.0622C41.5728 55.1423 41.6197 55.215 41.6802 55.2756C41.7408 55.3361 41.8135 55.3831 41.8937 55.4132C41.9738 55.4434 42.0594 55.4562 42.1449 55.4507Z" fill="#55C2B8"/>
<path d="M38.7056 39.0291V54.8335C38.7056 55.0031 38.773 55.1658 38.8929 55.2858C39.0129 55.4058 39.1756 55.4732 39.3453 55.4732C39.5149 55.4732 39.6776 55.4058 39.7976 55.2858C39.9176 55.1658 39.985 55.0031 39.985 54.8335V39.0291C39.9905 38.9437 39.9777 38.8581 39.9475 38.7779C39.9174 38.6978 39.8704 38.6251 39.8099 38.5645C39.7493 38.504 39.6766 38.4571 39.5965 38.4269C39.5163 38.3967 39.4307 38.3839 39.3453 38.3894C39.1756 38.3894 39.0129 38.4568 38.8929 38.5768C38.773 38.6968 38.7056 38.8595 38.7056 39.0291Z" fill="#55C2B8"/>
<path d="M23.6914 5.61433C23.5965 5.55155 23.4853 5.51807 23.3715 5.51807C23.2578 5.51807 23.1466 5.55155 23.0517 5.61433C21.6445 6.33211 20.4628 7.42445 19.6369 8.77097C18.8109 10.1175 18.3727 11.6659 18.3706 13.2456C18.374 15.1383 18.9967 16.9779 20.1436 18.4836C21.2905 19.9892 22.8986 21.0782 24.7224 21.5842L24.0827 32.7451H23.6989C23.6135 32.7396 23.5278 32.7523 23.4477 32.7825C23.3676 32.8127 23.2948 32.8596 23.2343 32.9202C23.1738 32.9807 23.1268 33.0535 23.0966 33.1336C23.0665 33.2137 23.0537 33.2994 23.0592 33.3848V54.8109C23.0592 55.8489 23.4715 56.8443 24.2054 57.5782C24.9394 58.3121 25.9348 58.7244 26.9727 58.7244C28.0106 58.7244 29.006 58.3121 29.7399 57.5782C30.4738 56.8443 30.8861 55.8489 30.8861 54.8109V33.3848C30.8917 33.2994 30.8789 33.2137 30.8487 33.1336C30.8185 33.0535 30.7716 32.9807 30.711 32.9202C30.6505 32.8596 30.5777 32.8127 30.4976 32.7825C30.4175 32.7523 30.3319 32.7396 30.2464 32.7451H29.8551L29.2154 21.5842C31.0378 21.0768 32.6443 19.9872 33.7897 18.4817C34.9352 16.9762 35.5568 15.1373 35.5597 13.2456C35.5555 11.6636 35.1139 10.1135 34.2838 8.76676C33.4537 7.42002 32.2674 6.32901 30.856 5.61433C30.7559 5.56734 30.6467 5.54298 30.5362 5.54298C30.4256 5.54298 30.3164 5.56734 30.2163 5.61433C30.1167 5.67448 30.0344 5.75956 29.9777 5.86118C29.9209 5.96279 29.8917 6.07744 29.8927 6.19382V12.6059C29.8967 12.8255 29.8571 13.0438 29.7763 13.2481C29.6954 13.4524 29.5749 13.6387 29.4216 13.7961C29.2684 13.9536 29.0855 14.0791 28.8834 14.1654C28.6814 14.2518 28.4643 14.2972 28.2445 14.2992H25.4901C25.05 14.2896 24.6306 14.1105 24.3193 13.7992C24.008 13.488 23.8289 13.0685 23.8193 12.6284V6.19382C23.8508 6.14795 23.8725 6.09609 23.8831 6.04148C23.8938 5.98687 23.893 5.93066 23.881 5.87633C23.869 5.82201 23.846 5.77072 23.8134 5.72565C23.7808 5.68059 23.7393 5.6427 23.6914 5.61433ZM29.6594 54.8712C29.6555 55.5685 29.3767 56.2362 28.8836 56.7293C28.3904 57.2225 27.7227 57.5013 27.0254 57.5052C26.679 57.5082 26.3354 57.4421 26.0149 57.3107C25.6944 57.1793 25.4033 56.9853 25.1587 56.74C24.9141 56.4947 24.7209 56.2031 24.5904 55.8822C24.4599 55.5613 24.3948 55.2175 24.3988 54.8712V34.032H29.6669L29.6594 54.8712ZM28.6359 32.7451H25.4901L26.0696 21.8251C26.3849 21.8815 26.7053 21.9042 27.0254 21.8928C27.348 21.9043 27.6709 21.8815 27.9887 21.8251L28.6359 32.7451ZM25.5879 15.556H28.3725C28.7605 15.558 29.145 15.4831 29.5038 15.3355C29.8626 15.188 30.1887 14.9707 30.463 14.6964C30.7373 14.422 30.9546 14.096 31.1021 13.7372C31.2497 13.3784 31.3246 12.9938 31.3226 12.6059V7.33776C32.3422 8.06968 33.1568 9.05113 33.6883 10.1881C34.2198 11.3251 34.4505 12.5795 34.3583 13.8312C34.266 15.0828 33.854 16.2899 33.1615 17.3367C32.4691 18.3834 31.5194 19.2349 30.4036 19.8094C29.2878 20.384 28.0431 20.6624 26.7888 20.6181C25.5345 20.5737 24.3126 20.208 23.2401 19.5561C22.1677 18.9041 21.2806 17.9877 20.6638 16.8946C20.0471 15.8015 19.7213 14.5684 19.7177 13.3133C19.7259 12.1539 20.0018 11.012 20.524 9.97674C21.0462 8.94151 21.8005 8.04094 22.7281 7.34528V12.6134C22.7221 12.9945 22.7914 13.3731 22.932 13.7274C23.0726 14.0817 23.2817 14.4048 23.5474 14.6782C23.813 14.9515 24.13 15.1698 24.4802 15.3204C24.8303 15.471 25.2068 15.5511 25.5879 15.556Z" fill="#0054A6"/>
<path d="M27.0253 55.1947C27.5573 55.1947 27.9886 54.7634 27.9886 54.2314C27.9886 53.6994 27.5573 53.2681 27.0253 53.2681C26.4933 53.2681 26.062 53.6994 26.062 54.2314C26.062 54.7634 26.4933 55.1947 27.0253 55.1947Z" fill="#0054A6"/>
</svg>
