<svg width="64" height="64" viewBox="0 0 64 64" fill="none" xmlns="http://www.w3.org/2000/svg">
<path d="M30.6376 46.9989L30.6226 46.9839L30.6376 46.9989Z" fill="#0054A6"/>
<path d="M57.7236 16.0074C57.6185 15.8488 57.4572 15.7358 57.2721 15.6914L55.496 15.3L55.5336 15.1194C55.6547 14.4515 55.6775 13.7694 55.6013 13.0949V12.9519L57.385 12.2972C57.5117 12.1993 57.6038 12.0635 57.648 11.9096C57.6922 11.7556 57.6862 11.5916 57.6308 11.4414C57.5754 11.2912 57.4735 11.1625 57.34 11.0741C57.2065 10.9858 57.0482 10.9423 56.8883 10.9501L55.3154 11.5295L55.2476 11.3565C55.0694 10.8356 54.8158 10.3437 54.495 9.89643L54.3596 9.78355L55.6013 8.60951C55.7261 8.47122 55.7952 8.29156 55.7952 8.10528C55.7952 7.919 55.7261 7.73933 55.6013 7.60104C55.5379 7.53207 55.4612 7.47655 55.3759 7.43776C55.2906 7.39898 55.1983 7.37773 55.1046 7.37527C55.0102 7.36795 54.9152 7.3817 54.8267 7.41554C54.7382 7.44938 54.6584 7.50246 54.5929 7.57094L53.2834 8.80518L53.1554 8.71487L52.9823 8.58693C52.878 8.50316 52.7673 8.42767 52.6512 8.36116C52.5156 8.28803 52.3747 8.22514 52.2297 8.17301L52.004 8.0827L51.8459 8.01497L52.448 6.1034C52.5006 5.9202 52.4818 5.72386 52.3953 5.55401C52.2989 5.40145 52.1508 5.28865 51.9781 5.23615C51.8054 5.18365 51.6196 5.19497 51.4546 5.26802C51.3705 5.31109 51.2958 5.37057 51.2351 5.44295C51.1743 5.51534 51.1287 5.59916 51.1009 5.68947L50.4762 7.65372H50.3182C49.6741 7.58185 49.0232 7.59958 48.384 7.70641H48.2185L47.7519 6.20123C47.7332 6.10333 47.6932 6.01075 47.6346 5.9301C47.5761 5.84944 47.5005 5.7827 47.4132 5.73463C47.332 5.69111 47.243 5.66405 47.1513 5.65501C47.0596 5.64597 46.967 5.65512 46.8789 5.68195C46.7011 5.74394 46.5531 5.87029 46.4639 6.03608C46.3747 6.20187 46.3509 6.39505 46.3972 6.57752L46.8638 8.0827L46.7058 8.15043C46.0728 8.42302 45.4782 8.77723 44.9372 9.20405L44.8017 9.30942L43.7631 8.27837C43.6984 8.20951 43.6203 8.15462 43.5336 8.11709C43.4469 8.07955 43.3534 8.06017 43.2589 8.06012C43.0688 8.06078 42.8859 8.13337 42.7472 8.26332C42.6152 8.396 42.5374 8.57308 42.5289 8.76003C42.5268 8.85458 42.5438 8.94859 42.5787 9.03649C42.6136 9.12439 42.6657 9.2044 42.7321 9.27179L43.7105 10.2803L42.1451 11.8682L41.0087 10.6565C40.9428 10.5896 40.8644 10.5365 40.7778 10.5003C40.6912 10.464 40.5983 10.4453 40.5044 10.4453C40.4106 10.4453 40.3177 10.464 40.2311 10.5003C40.1445 10.5365 40.066 10.5896 40.0002 10.6565C39.9333 10.7224 39.8802 10.8009 39.8439 10.8874C39.8076 10.974 39.789 11.0669 39.789 11.1608C39.789 11.2546 39.8076 11.3476 39.8439 11.4341C39.8802 11.5207 39.9333 11.5992 40.0002 11.665L41.1592 12.9143L39.654 14.4195L38.4574 13.268C38.3136 13.1829 38.1456 13.148 37.9798 13.1689C37.814 13.1898 37.6599 13.2653 37.5417 13.3834C37.4236 13.5016 37.3481 13.6557 37.3272 13.8215C37.3063 13.9873 37.3412 14.1553 37.4264 14.2991L38.5477 15.4656L37.0952 16.9331L35.9438 15.8042C35.8 15.7328 35.6372 15.7091 35.4791 15.7368C35.3209 15.7644 35.1758 15.8419 35.0648 15.9579C34.9539 16.0739 34.8829 16.2224 34.8623 16.3816C34.8417 16.5408 34.8726 16.7024 34.9503 16.8428L36.1244 17.904L34.4386 19.5672L33.2721 18.3931C33.207 18.3253 33.1286 18.2716 33.0419 18.2353C32.9551 18.1991 32.8619 18.181 32.7678 18.1824C32.6746 18.1814 32.582 18.1988 32.4954 18.2336C32.4089 18.2685 32.3301 18.3202 32.2636 18.3856C32.1327 18.5214 32.0575 18.7013 32.0529 18.8898C32.0501 18.9834 32.0667 19.0765 32.1017 19.1632C32.1367 19.25 32.1892 19.3286 32.2561 19.3941L33.4301 20.5756L31.9249 22.0808L30.9466 21.1175C30.8808 21.0506 30.8023 20.9975 30.7157 20.9612C30.6291 20.9249 30.5362 20.9063 30.4424 20.9063C30.3485 20.9063 30.2556 20.9249 30.169 20.9612C30.0824 20.9975 30.004 21.0506 29.9381 21.1175C29.8713 21.183 29.8187 21.2616 29.7837 21.3483C29.7487 21.4351 29.7321 21.5282 29.7349 21.6217C29.7344 21.7156 29.7528 21.8086 29.789 21.8953C29.8252 21.9819 29.8785 22.0604 29.9456 22.126L30.909 23.0893L28.2523 25.7384L28.1244 25.6556C26.7728 24.7262 25.1935 24.1824 23.5562 24.0827C22.8746 24.0743 22.2034 24.2511 21.6145 24.5945L21.4866 24.6622L20.1018 23.2774C19.5177 22.6946 18.774 22.2979 17.9647 22.1373C17.1553 21.9767 16.3166 22.0594 15.5542 22.375C14.7918 22.6905 14.1399 23.2249 13.6809 23.9105C13.2218 24.5962 12.9761 25.4024 12.9748 26.2276C12.9735 26.7754 13.0805 27.3181 13.2897 27.8244C13.499 28.3307 13.8063 28.7907 14.194 29.1777L15.5186 30.5023L12.3577 33.6631C11.4961 34.5375 10.8884 35.6296 10.5994 36.8226C10.3104 38.0156 10.3511 39.2647 10.717 40.4364V40.4816V40.5343C10.7139 40.5718 10.7139 40.6096 10.717 40.6471L9.03125 52.2144C8.93977 52.8535 8.99822 53.5051 9.20199 54.1177C9.40575 54.7303 9.74924 55.2871 10.2053 55.744L12.3426 57.8814C12.6489 58.1903 13.0136 58.4352 13.4154 58.6019C13.8172 58.7685 14.2482 58.8536 14.6832 58.8522C15.1204 58.8535 15.5536 58.7685 15.9578 58.6018C16.3621 58.4352 16.7294 58.1904 17.0388 57.8814L22.6004 52.3122H22.7961C22.9466 52.3122 23.0971 52.3122 23.2476 52.3122C24.3475 52.3411 25.4139 51.9324 26.2128 51.1758L30.5026 46.8861L37.8177 39.5785C38.4214 38.9564 38.759 38.1236 38.759 37.2567C38.759 36.3899 38.4214 35.5571 37.8177 34.935L37.6898 34.7995L40.0529 32.4289L41.2947 33.633C41.4329 33.7578 41.6126 33.8269 41.7989 33.8269C41.9852 33.8269 42.1648 33.7578 42.3031 33.633C42.43 33.4943 42.5004 33.3131 42.5004 33.125C42.5004 32.937 42.43 32.7558 42.3031 32.617L41.0839 31.4355L42.6568 29.855L43.9137 31.014C44.0575 31.1328 44.2403 31.194 44.4266 31.1856C44.6129 31.1773 44.7895 31.1 44.9221 30.9689C44.9861 30.9005 45.0358 30.82 45.0681 30.7321C45.1004 30.6442 45.1147 30.5507 45.1103 30.4571C45.1096 30.3631 45.0892 30.2703 45.0503 30.1847C45.0114 30.0992 44.9549 30.0227 44.8845 29.9604L43.6728 28.8391L44.2147 28.2972L45.0877 27.4242L45.2232 27.2962L46.4574 28.5154C46.5961 28.6424 46.7774 28.7128 46.9654 28.7128C47.1534 28.7128 47.3347 28.6424 47.4734 28.5154C47.6003 28.3767 47.6707 28.1955 47.6707 28.0074C47.6707 27.8194 47.6003 27.6382 47.4734 27.4994L46.2467 26.2878L47.797 24.7299L49.1065 25.9867C49.2452 26.1137 49.4265 26.1841 49.6145 26.1841C49.8025 26.1841 49.9838 26.1137 50.1225 25.9867C50.1884 25.9209 50.2398 25.8421 50.2735 25.7553C50.3072 25.6684 50.3224 25.5755 50.3182 25.4825C50.319 25.3879 50.3001 25.2941 50.2625 25.2073C50.2249 25.1204 50.1695 25.0424 50.0999 24.9783L48.813 23.7365L50.3182 22.2313L51.6051 23.3301C51.7438 23.457 51.9251 23.5274 52.1131 23.5274C52.3011 23.5274 52.4824 23.457 52.6211 23.3301C52.7399 23.1863 52.801 23.0035 52.7927 22.8172C52.7843 22.6309 52.7071 22.4543 52.5759 22.3216L51.3342 21.1476L52.8393 19.6424L54.1865 20.7864C54.3317 20.9063 54.5166 20.9675 54.7047 20.9577C54.8928 20.9479 55.0704 20.868 55.2025 20.7337C55.3215 20.5876 55.3813 20.4021 55.3701 20.214C55.359 20.0258 55.2777 19.8488 55.1423 19.7177L53.8252 18.5437L53.9456 18.4007C54.3531 17.9129 54.6994 17.3771 54.9767 16.8052L55.0444 16.6697L56.9635 17.0912H57.114C57.2382 17.0817 57.3581 17.0415 57.4629 16.9742C57.5677 16.907 57.6542 16.8148 57.7146 16.7059C57.7751 16.597 57.8075 16.4748 57.8091 16.3503C57.8106 16.2257 57.7813 16.1028 57.7236 15.9924V16.0074ZM15.21 28.1542C14.6953 27.6391 14.4061 26.9407 14.4061 26.2125C14.4061 25.4843 14.6953 24.7859 15.21 24.2708C15.7347 23.7777 16.4278 23.5031 17.1479 23.5031C17.868 23.5031 18.5611 23.7777 19.0858 24.2708L20.4104 25.5879L16.5571 29.4787L15.21 28.1542ZM16.0378 56.8729C15.8616 57.0481 15.6526 57.1868 15.4228 57.2811C15.1929 57.3753 14.9467 57.4233 14.6982 57.4223C14.4521 57.423 14.2082 57.3748 13.9808 57.2805C13.7535 57.1862 13.5471 57.0476 13.3737 56.8729L11.2288 54.728C10.9342 54.4283 10.713 54.0644 10.5824 53.6649C10.4519 53.2653 10.4155 52.841 10.4762 52.4251L11.876 42.6415L12.147 42.9576C12.1879 42.9979 12.2234 43.0434 12.2523 43.093C12.2907 43.1444 12.3335 43.1922 12.3803 43.236L20.3201 51.1758C20.5069 51.3658 20.7138 51.5348 20.9372 51.6801L21.1253 51.808L16.0378 56.8729ZM32.8582 42.491L31.067 40.6998C30.9283 40.5729 30.747 40.5025 30.559 40.5025C30.371 40.5025 30.1897 40.5729 30.051 40.6998C29.9262 40.8381 29.8571 41.0178 29.8571 41.2041C29.8571 41.3903 29.9262 41.57 30.051 41.7083L31.8422 43.507L29.9983 45.3433L28.2072 43.5521C28.0684 43.4252 27.8872 43.3548 27.6992 43.3548C27.5111 43.3548 27.3299 43.4252 27.1912 43.5521C27.0643 43.6909 26.9939 43.8721 26.9939 44.0601C26.9939 44.2482 27.0643 44.4294 27.1912 44.5681L28.9899 46.3593L27.3417 48.0074L23.7218 44.4026L30.8563 37.2304L34.4762 40.8503L32.8582 42.491ZM36.8092 38.5399L35.5148 39.8343L31.3831 35.7102C31.2448 35.5854 31.0651 35.5163 30.8789 35.5163C30.6926 35.5163 30.5129 35.5854 30.3746 35.7102L22.2015 43.8833C22.1344 43.9489 22.0811 44.0273 22.0449 44.114C22.0087 44.2006 21.9903 44.2936 21.9908 44.3875C21.9954 44.576 22.0706 44.756 22.2015 44.8917L26.3408 49.0159L25.2119 50.1448C24.6945 50.6406 24.0017 50.9112 23.2853 50.8974C22.562 50.9114 21.8622 50.6412 21.3361 50.1448L13.3737 42.2125C12.3828 41.2108 11.827 39.8586 11.827 38.4496C11.827 37.0406 12.3828 35.6884 13.3737 34.6867L21.9381 26.1072C22.368 25.7205 22.9337 25.5202 23.511 25.5502C25.3925 25.5502 27.9137 27.0554 29.4264 28.5606L36.7641 35.8983C37.1152 36.2497 37.3124 36.7261 37.3124 37.2229C37.3124 37.7196 37.1152 38.196 36.7641 38.5474L36.8092 38.5399ZM31.7443 28.7563L31.8798 28.6208C33.9118 26.634 36.877 23.6311 39.8873 20.6509L39.9626 20.5681C42.86 17.6556 45.7048 14.7883 47.5261 12.9745C47.7639 12.7267 48.06 12.5424 48.3873 12.4386C48.7147 12.3347 49.0629 12.3145 49.4 12.38C49.7246 12.4428 50.0282 12.5859 50.2833 12.7962C50.5383 13.0066 50.7366 13.2774 50.86 13.5841C51.024 13.9742 51.0607 14.4062 50.9647 14.8184C50.8688 15.2305 50.6451 15.6019 50.3257 15.8795C48.971 17.1965 45.1554 20.9218 34.401 31.1871L34.2655 31.3151L31.7443 28.7563ZM52.4104 18.062L52.2975 18.1749C48.9108 21.5666 45.5267 24.9557 42.1451 28.3423L36.734 33.761L35.2815 32.3612L35.4245 32.2257C43.9588 24.0375 49.4527 18.7469 51.2965 16.8955C51.7636 16.466 52.1033 15.9162 52.2785 15.3064C52.4537 14.6966 52.4575 14.0503 52.2896 13.4384C52.1216 12.8266 51.7884 12.2728 51.3265 11.8378C50.8646 11.4029 50.2918 11.1035 49.671 10.9726C49.1025 10.8647 48.5162 10.8981 47.9637 11.07C47.4112 11.242 46.9094 11.5471 46.5026 11.9585C44.6813 13.7723 41.8365 16.6396 38.9767 19.5597L38.7735 19.7704C35.8309 22.6603 32.8657 25.6481 30.8563 27.6424L30.7208 27.7779L30.48 27.5371C30.2392 27.2962 29.9381 27.0328 29.5769 26.7318L29.4113 26.5963L45.1554 10.8823C45.8991 10.119 46.8193 9.55035 47.8346 9.22663C48.5163 8.9999 49.2372 8.91498 49.9529 8.9771C50.6686 9.03922 51.364 9.24707 51.9964 9.58787C52.528 9.88637 52.9918 10.292 53.3584 10.7791C53.7251 11.2662 53.9865 11.8242 54.1263 12.4176C54.3844 13.4254 54.3608 14.4846 54.0583 15.4799C53.7557 16.4753 53.1857 17.3684 52.4104 18.062V18.062Z" fill="#0054A6"/>
<path d="M23.4746 29.2947L15.8168 36.9525C15.3465 37.4227 15.3465 38.1852 15.8168 38.6554L19.3131 42.1517C19.7833 42.6219 20.5457 42.6219 21.016 42.1517L28.6738 34.4939C29.144 34.0237 29.144 33.2613 28.6738 32.791L25.1775 29.2947C24.7072 28.8245 23.9448 28.8245 23.4746 29.2947Z" fill="#55C2B8"/>
</svg>
